<svg width="36" height="36" viewBox="0 0 36 36" fill="none" xmlns="http://www.w3.org/2000/svg">
<path fill-rule="evenodd" clip-rule="evenodd" d="M3.87868 5.37868C3 6.25736 3 7.67157 3 10.5V25.5C3 28.3284 3 29.7426 3.87868 30.6213C4.75736 31.5 6.17157 31.5 9 31.5H27C29.8284 31.5 31.2426 31.5 32.1213 30.6213C33 29.7426 33 28.3284 33 25.5V10.5C33 7.67157 33 6.25736 32.1213 5.37868C31.2426 4.5 29.8284 4.5 27 4.5H9C6.17157 4.5 4.75736 4.5 3.87868 5.37868ZM24 12.5C24.5523 12.5 25 12.9477 25 13.5V25.5C25 26.0523 24.5523 26.5 24 26.5C23.4477 26.5 23 26.0523 23 25.5V13.5C23 12.9477 23.4477 12.5 24 12.5ZM13 16.5C13 15.9477 12.5523 15.5 12 15.5C11.4477 15.5 11 15.9477 11 16.5V25.5C11 26.0523 11.4477 26.5 12 26.5C12.5523 26.5 13 26.0523 13 25.5V16.5ZM19 19.5C19 18.9477 18.5523 18.5 18 18.5C17.4477 18.5 17 18.9477 17 19.5V25.5C17 26.0523 17.4477 26.5 18 26.5C18.5523 26.5 19 26.0523 19 25.5V19.5Z" fill="#2E4057"/>
</svg>
