<svg width="18" height="18" viewBox="0 0 18 18" fill="none" xmlns="http://www.w3.org/2000/svg">
<path d="M1.5 6.75C1.5 5.81812 1.5 5.35218 1.65224 4.98463C1.85523 4.49458 2.24458 4.10523 2.73463 3.90224C3.10218 3.75 3.56812 3.75 4.5 3.75H13.5C14.4319 3.75 14.8978 3.75 15.2654 3.90224C15.7554 4.10523 16.1448 4.49458 16.3478 4.98463C16.5 5.35218 16.5 5.81812 16.5 6.75V6.75C16.5 6.98297 16.5 7.09946 16.4619 7.19134C16.4112 7.31386 16.3139 7.41119 16.1913 7.46194C16.0995 7.5 15.983 7.5 15.75 7.5H2.25C2.01703 7.5 1.90054 7.5 1.80866 7.46194C1.68614 7.41119 1.58881 7.31386 1.53806 7.19134C1.5 7.09946 1.5 6.98297 1.5 6.75V6.75Z" fill="#2E4057"/>
<path d="M1.5 12.5C1.5 14.3856 1.5 15.3284 2.08579 15.9142C2.67157 16.5 3.61438 16.5 5.5 16.5H12.5C14.3856 16.5 15.3284 16.5 15.9142 15.9142C16.5 15.3284 16.5 14.3856 16.5 12.5V10C16.5 9.5286 16.5 9.29289 16.3536 9.14645C16.2071 9 15.9714 9 15.5 9H2.5C2.0286 9 1.79289 9 1.64645 9.14645C1.5 9.29289 1.5 9.5286 1.5 10V12.5Z" fill="#2E4057"/>
<path d="M5.25 2.25L5.25 4.5" stroke="#2E4057" stroke-width="2" stroke-linecap="round"/>
<path d="M12.75 2.25L12.75 4.5" stroke="#2E4057" stroke-width="2" stroke-linecap="round"/>
</svg>
