<svg width="36" height="36" viewBox="0 0 36 36" fill="none" xmlns="http://www.w3.org/2000/svg">
<path fill-rule="evenodd" clip-rule="evenodd" d="M22 3C23.1581 3 24.1384 3 24.9748 3.03393C24.6761 3.4458 24.5 3.95233 24.5 4.5V6.5L22.5 6.5C21.1193 6.5 20 7.61929 20 9C20 10.3807 21.1193 11.5 22.5 11.5H24.5V13.5C24.5 14.8807 25.6193 16 27 16C28.3807 16 29.5 14.8807 29.5 13.5V11.5H30V25C30 28.7712 30 30.6569 28.8284 31.8284C27.6569 33 25.7712 33 22 33H14C10.2288 33 8.34315 33 7.17157 31.8284C6 30.6569 6 28.7712 6 25V11C6 7.22876 6 5.34315 7.17157 4.17157C8.34315 3 10.2288 3 14 3H22ZM29.5 5.18856C29.6566 5.56482 29.7641 5.99685 29.838 6.5H29.5V5.18856ZM12 17C11.4477 17 11 17.4477 11 18C11 18.5523 11.4477 19 12 19H18C18.5523 19 19 18.5523 19 18C19 17.4477 18.5523 17 18 17H12ZM12 21.5C11.4477 21.5 11 21.9477 11 22.5C11 23.0523 11.4477 23.5 12 23.5H21C21.5523 23.5 22 23.0523 22 22.5C22 21.9477 21.5523 21.5 21 21.5H12ZM12 26C11.4477 26 11 26.4477 11 27C11 27.5523 11.4477 28 12 28H18C18.5523 28 19 27.5523 19 27C19 26.4477 18.5523 26 18 26H12Z" fill="#2E4057"/>
<path d="M27 4.5L27 13.5" stroke="#2E4057" stroke-width="2" stroke-linecap="round"/>
<path d="M31.5 9L22.5 9" stroke="#2E4057" stroke-width="2" stroke-linecap="round"/>
</svg>
