<svg width="38" height="36" fill="none" xmlns="http://www.w3.org/2000/svg">
	<path
		d="M9.737 8.5c0-1.886 0-2.828.586-3.414.586-.586 1.529-.586 3.414-.586H23.92c1.886 0 2.829 0 3.414.586.586.586.586 1.528.586 3.414v7c0 1.886 0 2.828-.586 3.414-.585.586-1.528.586-3.414.586H13.737c-1.885 0-2.828 0-3.414-.586-.586-.586-.586-1.528-.586-3.414v-7z"
		fill="#2E4057" />
	<path d="M8.222 12h8.269a2 2 0 011.407.579l3.376 3.342a2 2 0 001.407.579h10.541" stroke="#fff" stroke-width="2" />
	<path
		d="M5.192 18h24.073c1.12 0 1.68 0 2.108.218a2 2 0 01.874.874c.218.428.218.988.218 2.108v7.1c0 1.12 0 1.68-.218 2.108a2 2 0 01-.874.874c-.428.218-.988.218-2.108.218H8.392c-1.12 0-1.68 0-2.108-.218a2 2 0 01-.874-.874c-.218-.428-.218-.988-.218-2.108V18zM5.192 17.5c0-1.886 0-2.828.586-3.414.586-.586 1.528-.586 3.414-.586h4.96c.813 0 1.219 0 1.584.15.366.15.654.436 1.231 1.007L20.344 18H5.191v-.5z"
		fill="#2E4057" />
</svg>