<svg width="37" height="36" fill="none" xmlns="http://www.w3.org/2000/svg">
	<path fill-rule="evenodd" clip-rule="evenodd"
		d="M4.717 4.172C3.545 5.343 3.545 7.229 3.545 11v14c0 3.771 0 5.657 1.172 6.828C5.889 33 7.774 33 11.545 33h14.303c3.772 0 5.657 0 6.829-1.172 1.171-1.171 1.171-3.057 1.171-6.828V11c0-3.261 0-5.112-.757-6.311V25.5c-.617 0-.926 0-1.221-.044a4 4 0 01-1.768-.727c-.24-.177-.46-.394-.899-.828l-1.631-1.615c-1.328-1.315-1.992-1.972-2.814-1.972-.823 0-1.487.657-2.815 1.972l-1.166 1.155c-.944.934-1.415 1.4-1.934 1.3-.518-.1-.781-.709-1.309-1.927l-1.057-2.442c-1.055-2.437-1.582-3.655-2.619-3.855-1.036-.2-1.98.733-3.866 2.601L5.818 23.25V3.466a3.11 3.11 0 00-1.101.706z"
		fill="#2E4057" />
	<path
		d="M4.545 11c0-1.914.003-3.249.138-4.256.131-.978.372-1.496.741-1.865.37-.37.887-.61 1.866-.741C8.297 4.002 9.632 4 11.545 4h14.303c1.914 0 3.25.002 4.256.138.979.131 1.497.372 1.866.74.369.37.61.888.74 1.866.136 1.007.138 2.342.138 4.256v14c0 1.914-.002 3.249-.137 4.256-.132.978-.372 1.496-.741 1.865-.37.37-.887.61-1.866.742-1.007.135-2.342.137-4.256.137H11.545c-1.913 0-3.248-.002-4.255-.137-.979-.132-1.497-.373-1.866-.742s-.61-.887-.741-1.865c-.135-1.007-.138-2.342-.138-4.256V11z"
		stroke="#2E4057" stroke-width="2" />
	<ellipse cx="23.242" cy="13.5" rx="3.03" ry="3" fill="#2E4057" />
</svg>