<svg width="24" height="25" fill="none" xmlns="http://www.w3.org/2000/svg">
	<g clip-path="url(#prefix__prefix__clip0_77_32)">
		<path
			d="M11 7.71h2v2h-2v-2zm1 10c.55 0 1-.45 1-1v-4c0-.55-.45-1-1-1s-1 .45-1 1v4c0 .55.45 1 1 1zm0-15c-5.52 0-10 4.48-10 10s4.48 10 10 10 10-4.48 10-10-4.48-10-10-10zm0 18c-4.41 0-8-3.59-8-8s3.59-8 8-8 8 3.59 8 8-3.59 8-8 8z"
			fill="#fff" />
	</g>
	<defs>
		<clipPath id="prefix__prefix__clip0_77_32">
			<path fill="#fff" transform="translate(0 .71)" d="M0 0h24v24H0z" />
		</clipPath>
	</defs>
</svg>