<svg width="36" height="36" viewBox="0 0 36 36" fill="none" xmlns="http://www.w3.org/2000/svg">
<path d="M15 28.5L14.2929 27.7929L13.5858 28.5L14.2929 29.2071L15 28.5ZM20.2929 21.7929L14.2929 27.7929L15.7071 29.2071L21.7071 23.2071L20.2929 21.7929ZM14.2929 29.2071L20.2929 35.2071L21.7071 33.7929L15.7071 27.7929L14.2929 29.2071Z" fill="#2E4057"/>
<path d="M8.90673 23.25C7.75103 21.2483 7.28813 18.9211 7.58983 16.6295C7.89153 14.3378 8.94096 12.2098 10.5754 10.5754C12.2098 8.94097 14.3378 7.89153 16.6295 7.58983C18.9211 7.28813 21.2483 7.75103 23.25 8.90673C25.2517 10.0624 26.8162 11.8464 27.7007 13.9818C28.5853 16.1173 28.7405 18.485 28.1422 20.7176C27.544 22.9503 26.2258 24.9231 24.392 26.3302C22.5582 27.7373 20.3114 28.5 18 28.5" stroke="#2E4057" stroke-width="2" stroke-linecap="round"/>
</svg>
