<svg width="37" height="36" viewBox="0 0 37 36" fill="none" xmlns="http://www.w3.org/2000/svg">
<path d="M12.0241 28.3923C13.8483 29.4455 15.9177 30 18.0241 30C20.1305 30 22.1999 29.4455 24.0241 28.3923C25.8483 27.3391 27.3632 25.8242 28.4164 24C29.4696 22.1758 30.0241 20.1064 30.0241 18C30.0241 15.8936 29.4696 13.8242 28.4164 12C27.3632 10.1758 25.8483 8.66092 24.0241 7.6077C22.1999 6.55448 20.1305 6 18.0241 6C15.9177 6 13.8483 6.55447 12.0241 7.60769" stroke="#2E4057" stroke-width="2"/>
<path d="M3.02411 18L2.24324 17.3753L1.74348 18L2.24324 18.6247L3.02411 18ZM16.5241 19C17.0764 19 17.5241 18.5523 17.5241 18C17.5241 17.4477 17.0764 17 16.5241 17V19ZM8.24324 9.8753L2.24324 17.3753L3.80498 18.6247L9.80498 11.1247L8.24324 9.8753ZM2.24324 18.6247L8.24324 26.1247L9.80498 24.8753L3.80498 17.3753L2.24324 18.6247ZM3.02411 19H16.5241V17H3.02411V19Z" fill="#2E4057"/>
</svg>
