<svg width="37" height="36" fill="none" xmlns="http://www.w3.org/2000/svg">
	<path fill-rule="evenodd" clip-rule="evenodd"
		d="M19.674 10.602l3.35-3.316c1.328-1.314 1.992-1.972 2.814-1.972.823 0 1.487.658 2.815 1.972l.375.371c1.352 1.34 2.028 2.009 2.028 2.843 0 .834-.676 1.504-2.028 2.843l-3.26 3.227a16.843 16.843 0 01-6.094-5.968zm-1.459 1.445L7.007 23.143c-.43.425-.644.638-.786.9-.141.262-.201.558-.32 1.15l-1.126 5.572c-.067.332-.1.499-.007.593.095.095.261.062.594-.004l5.659-1.12c.586-.116.88-.174 1.14-.312.26-.138.472-.349.897-.77l11.24-11.127a18.845 18.845 0 01-6.082-5.978z"
		fill="#2E4057" />
</svg>