<svg width="37" height="36" fill="none" xmlns="http://www.w3.org/2000/svg">
	<path fill-rule="evenodd" clip-rule="evenodd"
		d="M15.574 4.303l-2.51 2.494c-.378.376-.568.565-.797.696-.23.131-.487.199-1.004.335l-3.4.895c-1.838.484-2.757.726-3.174 1.448-.417.722-.167 1.639.333 3.473l.901 3.303c.143.524.215.785.215 1.053 0 .268-.072.53-.215 1.053l-.9 3.303c-.501 1.834-.751 2.752-.334 3.473.417.723 1.336.964 3.174 1.448l3.4.895c.517.136.775.204 1.004.335.23.131.419.32.798.696l2.51 2.495c1.33 1.321 1.994 1.982 2.819 1.982s1.49-.66 2.82-1.982l2.51-2.495c.378-.376.568-.565.797-.696.229-.131.487-.199 1.004-.335l3.4-.895c1.838-.484 2.757-.726 3.174-1.448.417-.721.167-1.639-.333-3.473l-.902-3.303c-.142-.524-.214-.785-.214-1.053 0-.268.072-.53.214-1.053l.902-3.303c.5-1.834.75-2.751.333-3.473s-1.336-.964-3.174-1.448l-3.4-.895c-.517-.136-.775-.204-1.004-.335-.23-.131-.419-.32-.798-.696l-2.51-2.494C19.884 2.98 19.22 2.32 18.395 2.32s-1.49.66-2.82 1.983zM18.394 24c3.347 0 6.06-2.686 6.06-6s-2.713-6-6.06-6c-3.347 0-6.06 2.686-6.06 6s2.713 6 6.06 6z"
		fill="#2E4057" />
</svg>